<svg xmlns="http://www.w3.org/2000/svg" viewBox="0 0 47.5 47.5" id="bread"><defs><clipPath id="a"><path d="M0 38h38V0H0v38Z"></path></clipPath></defs><g clip-path="url(#a)" transform="matrix(1.25 0 0 -1.25 0 47.5)"><path fill="#d99e82" d="M37 23.5c0 4.558-4.435 8.267-10 8.479V32H11v-.021C5.435 31.767 1 28.058 1 23.5c0-1.861.747-3.576 2-4.976V6a4 4 0 0 1 4-4h24a4 4 0 0 1 4 4v12.524c1.253 1.4 2 3.115 2 4.976"></path><path fill="#ffe8b6" d="M22 23.5c0 3.461-3.538 6.291-8 6.489-.166.007-2.332.011-2.5.011C6.806 30 3 27.09 3 23.5c0-1.595.754-3.053 2-4.184V7a3 3 0 0 1 3-3h9a3 3 0 0 1 3 3v12.321c1.244 1.131 2 2.586 2 4.179"></path></g></svg>